# Blender 3.3.1
# www.blender.org
mtllib MiningPodV2.mtl
o Mining_Pod
v 0.000000 1.172169 2.554090
v 1.000000 1.172169 2.554090
v 0.000000 1.713250 1.620075
v 1.000000 1.713250 1.620075
v 0.000000 -1.087885 2.825605
v 1.000000 -1.087885 2.825605
v 1.000000 -1.087885 2.356544
v 0.000000 -1.977791 0.357000
v 0.889448 -1.977791 0.357000
v 0.000000 -1.087885 3.012659
v 0.000000 -1.977791 2.503028
v 1.180062 -1.087885 3.012659
v 0.889448 -1.977791 2.503028
v 0.000000 1.905826 0.357000
v 1.180062 1.905826 0.357000
v 0.889448 -1.977791 2.338963
v 1.180062 -1.087885 0.357000
v 0.000000 -1.977791 2.338963
v 0.000000 1.905826 1.620075
v 1.180062 1.905826 1.620075
v 1.180062 -1.087885 2.356544
v 0.000000 -1.831032 0.357000
v 0.747089 -1.831032 0.357000
v 0.000000 1.784021 0.357000
v 1.037703 1.784021 0.357000
v 1.037703 -1.087885 0.357000
v 0.000000 -1.831032 -0.142917
v 0.747089 -1.831032 -0.142917
v 0.000000 1.784021 -0.142917
v 1.037703 1.784021 -0.142917
v 1.037703 -1.087885 -0.142917
v 0.000000 -1.964551 -0.142917
v 1.361454 -1.964551 -0.142917
v 0.000000 2.222964 -0.142917
v 1.949579 2.222964 -0.142917
v 1.667203 -1.309145 -0.142917
v 0.000000 -1.309145 -2.434673
v 0.000000 -1.964551 -2.051785
v 1.361454 -1.964551 -2.051785
v 0.000000 2.222964 -3.057019
v 1.949579 2.222964 -3.057019
v 1.667203 -1.309145 -2.434673
v 0.000000 0.037453 2.690411
v 0.000000 -0.715898 2.780916
v 1.000000 0.037453 2.690411
v 1.000000 -0.715898 2.780916
v 1.000000 0.306871 1.620075
v 1.000000 -0.626841 1.620075
v 1.180062 0.402759 0.357000
v 1.180062 -0.595144 0.357000
v 1.180062 0.402760 1.620075
v 1.180062 -0.595144 1.620075
v 1.037703 0.342110 0.357000
v 1.037703 -0.615192 0.357000
v 1.037703 0.342110 -0.142917
v 1.037703 -0.615192 -0.142917
v 1.807805 0.449582 -0.142917
v 1.713680 -0.727788 -0.142917
v 0.000000 0.449582 -2.744555
v 0.000000 -0.727788 -2.537106
v 1.807805 0.449582 -2.744555
v 1.713680 -0.727788 -2.537106
v 1.436781 0.233809 0.357000
v 1.436781 -0.547046 0.357000
v 1.436781 0.233809 1.620075
v 1.436781 -0.547046 1.620075
v 0.000000 -1.212109 3.012659
v 1.139495 -1.212109 3.012659
v 1.139495 -1.212109 0.357000
v 1.139495 -1.212109 2.354090
v 0.997136 -1.191622 0.357000
v 0.997136 -1.191622 -0.142917
v 1.624523 -1.400634 -0.142917
v 0.000000 -1.400634 -2.381225
v 1.624523 -1.400634 -2.381225
v -1.000000 1.172169 2.554090
v -1.000000 1.713250 1.620075
v -1.000000 -1.087885 2.825605
v -1.000000 -1.087885 2.356544
v -0.889448 -1.977791 0.357000
v -1.180062 -1.087885 3.012659
v -0.889448 -1.977791 2.503028
v -1.180062 1.905826 0.357000
v -0.889448 -1.977791 2.338963
v -1.180062 -1.087885 0.357000
v -1.180062 1.905826 1.620075
v -1.180062 -1.087885 2.356544
v -0.747089 -1.831032 0.357000
v -1.037703 1.784021 0.357000
v -1.037703 -1.087885 0.357000
v -0.747089 -1.831032 -0.142917
v -1.037703 1.784021 -0.142917
v -1.037703 -1.087885 -0.142917
v -1.361454 -1.964551 -0.142917
v -1.949579 2.222964 -0.142917
v -1.667203 -1.309145 -0.142917
v -1.361454 -1.964551 -2.051785
v -1.949579 2.222964 -3.057019
v -1.667203 -1.309145 -2.434673
v -1.000000 0.037453 2.690411
v -1.000000 -0.715898 2.780916
v -1.000000 0.306871 1.620075
v -1.000000 -0.626841 1.620075
v -1.180062 0.402759 0.357000
v -1.180062 -0.595144 0.357000
v -1.180062 0.402760 1.620075
v -1.180062 -0.595144 1.620075
v -1.037703 0.342110 0.357000
v -1.037703 -0.615192 0.357000
v -1.037703 0.342110 -0.142917
v -1.037703 -0.615192 -0.142917
v -1.807805 0.449582 -0.142917
v -1.713680 -0.727788 -0.142917
v -1.807805 0.449582 -2.744555
v -1.713680 -0.727788 -2.537106
v -1.436781 0.233809 0.357000
v -1.436781 -0.547046 0.357000
v -1.436781 0.233809 1.620075
v -1.436781 -0.547046 1.620075
v -1.139495 -1.212109 3.012659
v -1.139495 -1.212109 0.357000
v -1.139495 -1.212109 2.354090
v -0.997136 -1.191622 0.357000
v -0.997136 -1.191622 -0.142917
v -1.624523 -1.400634 -0.142917
v -1.624523 -1.400634 -2.381225
vn -0.0000 0.1193 0.9929
vn 1.0000 -0.0000 -0.0000
vn -0.0000 0.8653 0.5013
vn -0.0000 1.0000 -0.0000
vn -0.0737 0.8371 0.5421
vn -0.0000 -0.0000 1.0000
vn -0.0000 -1.0000 -0.0000
vn -0.0000 -0.0000 -1.0000
vn 0.9506 -0.3104 -0.0000
vn 0.9313 -0.3642 -0.0000
vn 0.9062 -0.4228 -0.0000
vn 0.9968 -0.0797 -0.0000
vn -0.0000 -0.1735 -0.9848
vn -0.0000 -0.5044 -0.8635
vn 0.5497 0.8353 -0.0000
vn 0.1842 -0.9829 -0.0000
vn -0.0000 -0.5541 0.8325
vn -1.0000 -0.0000 -0.0000
vn 0.0737 0.8371 0.5421
vn -0.9506 -0.3104 -0.0000
vn -0.9313 -0.3642 -0.0000
vn -0.9062 -0.4228 -0.0000
vn -0.9968 -0.0797 -0.0000
vn -0.5497 0.8353 -0.0000
vn -0.1842 -0.9829 -0.0000
vt 0.210938 0.992188
vt 0.210938 0.898438
vt 0.312500 0.992188
vt 0.328125 0.976562
vt 0.210938 0.796875
vt 0.312500 0.898438
vt 0.421875 0.976562
vt 0.039062 0.734375
vt 0.007812 0.992188
vt 0.132812 0.734375
vt 0.007812 0.898438
vt 0.421875 0.710938
vt 0.132812 0.773438
vt 0.007812 0.859375
vt 0.570312 0.421875
vt 0.570312 0.507812
vt 0.039062 0.718750
vt 0.039062 0.625000
vt 0.148438 0.718750
vt 0.125000 0.625000
vt 0.187500 0.625000
vt 0.570312 0.992188
vt 0.570312 0.882812
vt 0.125000 0.609375
vt 0.203125 0.625000
vt 0.453125 0.507812
vt 0.570312 0.601562
vt 0.039062 0.609375
vt 0.453125 0.421875
vt 0.328125 0.992188
vt 0.453125 0.992188
vt 0.453125 0.882812
vt 0.437500 0.992188
vt 0.437500 0.710938
vt 0.453125 0.601562
vt 0.148438 0.773438
vt 0.382812 0.601562
vt 0.585938 0.421875
vt 0.007812 0.007812
vt 0.007812 0.093750
vt 0.585938 0.507812
vt 0.585938 0.992188
vt 0.007812 0.578125
vt 0.007812 0.468750
vt 0.585938 0.882812
vt 0.585938 0.601562
vt 0.007812 0.187500
vt 0.054688 0.007812
vt 0.515625 0.375000
vt 0.054688 0.093750
vt 0.601562 0.382812
vt 0.054688 0.578125
vt 0.632812 0.984375
vt 0.632812 0.875000
vt 0.054688 0.468750
vt 0.601562 0.750000
vt 0.601562 0.460938
vt 0.054688 0.187500
vt 0.523438 0.343750
vt 0.687500 0.265625
vt 0.687500 0.382812
vt 0.687500 0.992188
vt 0.687500 0.789062
vt 0.687500 0.460938
vt 0.390625 0.171875
vt 0.890625 0.265625
vt 0.390625 0.093750
vt 0.890625 0.382812
vt 0.242188 0.093750
vt 0.390625 0.500000
vt 0.992188 0.992188
vt 0.203125 0.500000
vt 0.992188 0.789062
vt 0.210938 0.171875
vt 0.929688 0.460938
vt 0.101562 0.992188
vt 0.039062 0.992188
vt 0.101562 0.898438
vt 0.039062 0.898438
vt 0.421875 0.851562
vt 0.101562 0.796875
vt 0.421875 0.757812
vt 0.039062 0.796875
vt 0.390625 0.804688
vt 0.570312 0.742188
vt 0.367188 0.812500
vt 0.390625 0.710938
vt 0.570312 0.648438
vt 0.367188 0.687500
vt 0.453125 0.742188
vt 0.437500 0.851562
vt 0.250000 0.812500
vt 0.226562 0.804688
vt 0.453125 0.648438
vt 0.437500 0.757812
vt 0.250000 0.687500
vt 0.226562 0.710938
vt 0.007812 0.328125
vt 0.585938 0.742188
vt 0.007812 0.234375
vt 0.585938 0.648438
vt 0.054688 0.328125
vt 0.601562 0.617188
vt 0.054688 0.234375
vt 0.601562 0.507812
vt 0.687500 0.617188
vt 0.687500 0.507812
vt 0.390625 0.328125
vt 0.390625 0.218750
vt 0.210938 0.328125
vt 0.960938 0.617188
vt 0.210938 0.218750
vt 0.937500 0.507812
vt 0.367188 0.789062
vt 0.367188 0.710938
vt 0.250000 0.789062
vt 0.250000 0.710938
vt 0.039062 0.703125
vt 0.164062 0.718750
vt 0.148438 0.703125
vt 0.570312 0.585938
vt 0.164062 0.773438
vt 0.203125 0.703125
vt 0.453125 0.585938
vt 0.585938 0.585938
vt 0.007812 0.171875
vt 0.601562 0.445312
vt 0.054688 0.171875
vt 0.687500 0.445312
vt 0.390625 0.156250
vt 0.210938 0.156250
vt 0.929688 0.445312
vt 0.210938 0.898438
vt 0.210938 0.796875
vt 0.312500 0.898438
vt 0.421875 0.976562
vt 0.132812 0.734375
vt 0.007812 0.898438
vt 0.421875 0.710938
vt 0.132812 0.773438
vt 0.007812 0.859375
vt 0.570312 0.507812
vt 0.148438 0.718750
vt 0.125000 0.625000
vt 0.187500 0.625000
vt 0.570312 0.882812
vt 0.125000 0.609375
vt 0.203125 0.625000
vt 0.453125 0.507812
vt 0.570312 0.601562
vt 0.453125 0.882812
vt 0.437500 0.992188
vt 0.437500 0.710938
vt 0.453125 0.601562
vt 0.148438 0.773438
vt 0.382812 0.601562
vt 0.007812 0.093750
vt 0.585938 0.507812
vt 0.007812 0.468750
vt 0.585938 0.882812
vt 0.585938 0.601562
vt 0.007812 0.187500
vt 0.054688 0.093750
vt 0.601562 0.382812
vt 0.632812 0.875000
vt 0.054688 0.468750
vt 0.601562 0.750000
vt 0.601562 0.460938
vt 0.054688 0.187500
vt 0.687500 0.382812
vt 0.687500 0.789062
vt 0.687500 0.460938
vt 0.890625 0.382812
vt 0.242188 0.093750
vt 0.203125 0.500000
vt 0.992188 0.789062
vt 0.210938 0.171875
vt 0.929688 0.460938
vt 0.101562 0.898438
vt 0.039062 0.898438
vt 0.421875 0.851562
vt 0.101562 0.796875
vt 0.421875 0.757812
vt 0.039062 0.796875
vt 0.390625 0.804688
vt 0.570312 0.742188
vt 0.367188 0.812500
vt 0.390625 0.710938
vt 0.570312 0.648438
vt 0.367188 0.687500
vt 0.453125 0.742188
vt 0.437500 0.851562
vt 0.250000 0.812500
vt 0.226562 0.804688
vt 0.453125 0.648438
vt 0.437500 0.757812
vt 0.250000 0.687500
vt 0.226562 0.710938
vt 0.007812 0.328125
vt 0.585938 0.742188
vt 0.007812 0.234375
vt 0.585938 0.648438
vt 0.054688 0.328125
vt 0.601562 0.617188
vt 0.054688 0.234375
vt 0.601562 0.507812
vt 0.687500 0.617188
vt 0.687500 0.507812
vt 0.210938 0.328125
vt 0.960938 0.617188
vt 0.210938 0.218750
vt 0.937500 0.507812
vt 0.367188 0.789062
vt 0.367188 0.710938
vt 0.250000 0.789062
vt 0.250000 0.710938
vt 0.164062 0.718750
vt 0.148438 0.703125
vt 0.570312 0.585938
vt 0.164062 0.773438
vt 0.203125 0.703125
vt 0.453125 0.585938
vt 0.585938 0.585938
vt 0.007812 0.171875
vt 0.601562 0.445312
vt 0.054688 0.171875
vt 0.687500 0.445312
vt 0.210938 0.156250
vt 0.929688 0.445312
s 0
usemtl Material
f 45/78/1 2/2/1 1/1/1 43/76/1
f 47/81/2 4/5/2 2/2/2 45/78/2
f 4/6/3 3/3/3 1/1/3 2/2/3
f 6/10/4 5/8/4 10/17/4 12/19/4
f 48/82/5 7/12/5 21/34/5 52/95/5
f 3/4/6 4/7/6 20/33/6 19/30/6
f 7/13/4 6/10/4 12/19/4 21/36/4
f 18/28/7 16/24/7 13/20/7 11/18/7
f 50/88/8 17/27/8 26/46/8 54/101/8
f 15/23/4 14/22/4 19/31/4 20/32/4
f 49/85/2 15/23/2 20/32/2 51/90/2
f 8/15/7 9/16/7 16/26/7 18/29/7
f 69/121/9 17/27/9 21/35/9 70/124/9
f 9/16/8 8/15/8 22/38/8 23/41/8
f 70/122/9 21/36/9 12/19/9 68/119/9
f 68/120/6 12/19/6 10/17/6 67/118/6
f 23/40/7 22/39/7 27/48/7 28/50/7
f 71/126/10 23/40/10 28/50/10 72/128/10
f 69/121/8 9/16/8 23/41/8 71/125/8
f 14/22/8 15/23/8 25/45/8 24/42/8
f 72/127/6 28/51/6 33/61/6 73/129/6
f 56/105/6 31/57/6 36/64/6 58/107/6
f 24/43/4 25/44/4 30/55/4 29/52/4
f 54/100/2 26/47/2 31/58/2 56/104/2
f 73/129/11 33/61/11 39/68/11 75/132/11
f 58/107/12 36/64/12 42/75/12 62/113/12
f 28/51/6 27/49/6 32/59/6 33/61/6
f 29/53/6 30/54/6 35/63/6 34/62/6
f 59/108/13 40/70/13 41/72/13 61/110/13
f 74/130/14 37/65/14 42/74/14 75/131/14
f 33/61/7 32/60/7 38/66/7 39/68/7
f 34/62/4 35/63/4 41/73/4 40/71/4
f 37/65/13 60/109/13 62/112/13 42/74/13
f 60/109/13 59/108/13 61/110/13 62/112/13
f 35/63/12 57/106/12 61/111/12 41/73/12
f 57/106/12 58/107/12 62/113/12 61/111/12
f 25/44/2 53/98/2 55/102/2 30/55/2
f 53/98/2 54/100/2 56/104/2 55/102/2
f 30/56/6 55/103/6 57/106/6 35/63/6
f 55/103/6 56/105/6 58/107/6 57/106/6
f 17/27/2 50/88/2 52/94/2 21/37/2
f 50/87/8 49/84/8 63/114/8 64/115/8
f 15/23/8 49/85/8 53/99/8 25/45/8
f 49/85/8 50/88/8 54/101/8 53/99/8
f 4/7/6 47/80/6 51/91/6 20/33/6
f 47/80/6 48/82/6 52/95/6 51/91/6
f 7/14/2 48/83/2 46/79/2 6/11/2
f 48/83/2 47/81/2 45/78/2 46/79/2
f 6/11/1 46/79/1 44/77/1 5/9/1
f 46/79/1 45/78/1 43/76/1 44/77/1
f 64/115/2 63/114/2 65/116/2 66/117/2
f 49/86/15 51/92/15 65/116/15 63/114/15
f 52/96/16 50/89/16 64/115/16 66/117/16
f 51/93/6 52/97/6 66/117/6 65/116/6
f 38/67/14 74/130/14 75/131/14 39/69/14
f 36/64/11 73/129/11 75/132/11 42/75/11
f 31/57/6 72/127/6 73/129/6 36/64/6
f 17/27/8 69/121/8 71/125/8 26/46/8
f 26/47/10 71/126/10 72/128/10 31/58/10
f 13/20/17 68/120/17 67/118/17 11/18/17
f 16/25/9 70/123/9 68/120/9 13/21/9
f 9/16/9 69/121/9 70/124/9 16/26/9
f 100/179/1 43/76/1 1/1/1 76/133/1
f 102/182/18 100/179/18 76/133/18 77/134/18
f 77/135/3 76/133/3 1/1/3 3/3/3
f 78/137/4 81/143/4 10/17/4 5/8/4
f 103/183/19 107/196/19 87/153/19 79/139/19
f 3/4/6 19/30/6 86/152/6 77/136/6
f 79/140/4 87/155/4 81/143/4 78/137/4
f 18/28/7 11/18/7 82/144/7 84/147/7
f 105/189/8 109/202/8 90/161/8 85/150/8
f 83/146/4 86/151/4 19/31/4 14/22/4
f 104/186/18 106/191/18 86/151/18 83/146/18
f 8/15/7 18/29/7 84/149/7 80/142/7
f 121/219/20 122/222/20 87/154/20 85/150/20
f 80/142/8 88/158/8 22/38/8 8/15/8
f 122/220/20 120/217/20 81/143/20 87/155/20
f 120/218/6 67/118/6 10/17/6 81/143/6
f 88/157/7 91/163/7 27/48/7 22/39/7
f 123/224/21 124/226/21 91/163/21 88/157/21
f 121/219/8 123/223/8 88/158/8 80/142/8
f 14/22/8 24/42/8 89/160/8 83/146/8
f 124/225/6 125/227/6 94/170/6 91/164/6
f 111/206/6 113/208/6 96/172/6 93/168/6
f 24/43/4 29/52/4 92/166/4 89/159/4
f 109/201/18 111/205/18 93/169/18 90/162/18
f 125/227/22 126/229/22 97/173/22 94/170/22
f 113/208/23 115/212/23 99/178/23 96/172/23
f 91/164/6 94/170/6 32/59/6 27/49/6
f 29/53/6 34/62/6 95/171/6 92/165/6
f 59/108/13 114/209/13 98/175/13 40/70/13
f 74/130/14 126/228/14 99/177/14 37/65/14
f 94/170/7 97/173/7 38/66/7 32/60/7
f 34/62/4 40/71/4 98/176/4 95/171/4
f 37/65/13 99/177/13 115/211/13 60/109/13
f 60/109/13 115/211/13 114/209/13 59/108/13
f 95/171/23 98/176/23 114/210/23 112/207/23
f 112/207/23 114/210/23 115/212/23 113/208/23
f 89/159/18 92/166/18 110/203/18 108/199/18
f 108/199/18 110/203/18 111/205/18 109/201/18
f 92/167/6 95/171/6 112/207/6 110/204/6
f 110/204/6 112/207/6 113/208/6 111/206/6
f 85/150/18 87/156/18 107/195/18 105/189/18
f 105/188/8 117/214/8 116/213/8 104/185/8
f 83/146/8 89/160/8 108/200/8 104/186/8
f 104/186/8 108/200/8 109/202/8 105/189/8
f 77/136/6 86/152/6 106/192/6 102/181/6
f 102/181/6 106/192/6 107/196/6 103/183/6
f 79/141/18 78/138/18 101/180/18 103/184/18
f 103/184/18 101/180/18 100/179/18 102/182/18
f 78/138/1 5/9/1 44/77/1 101/180/1
f 101/180/1 44/77/1 43/76/1 100/179/1
f 117/214/18 119/216/18 118/215/18 116/213/18
f 104/187/24 116/213/24 118/215/24 106/193/24
f 107/197/25 119/216/25 117/214/25 105/190/25
f 106/194/6 118/215/6 119/216/6 107/198/6
f 38/67/14 97/174/14 126/228/14 74/130/14
f 96/172/22 99/178/22 126/229/22 125/227/22
f 93/168/6 96/172/6 125/227/6 124/225/6
f 85/150/8 90/161/8 123/223/8 121/219/8
f 90/162/21 93/169/21 124/226/21 123/224/21
f 82/144/17 11/18/17 67/118/17 120/218/17
f 84/148/20 82/145/20 120/218/20 122/221/20
f 80/142/20 84/149/20 122/222/20 121/219/20
