# Blender 3.3.1
# www.blender.org
mtllib HalfM_Wall_Door_Arch.mtl
o HalfM_Door_Arch
v 1.500000 1.500000 -0.250000
v 1.500000 -1.500000 -0.250000
v 1.500000 1.500000 0.250000
v 1.500000 -1.500000 0.250000
v -1.500000 1.500000 -0.250000
v -1.500000 -1.500000 -0.250000
v -1.500000 1.500000 0.250000
v -1.500000 -1.500000 0.250000
v -0.750000 1.000000 0.250000
v 0.750000 1.000000 0.250000
v -0.750000 -1.500000 0.250000
v 0.750000 -1.500000 0.250000
v -0.750000 -1.500000 -0.250000
v 0.750000 -1.500000 -0.250000
v 0.750000 1.000000 -0.250000
v -0.750000 1.000000 -0.250000
v 0.750001 1.500000 0.250000
v 1.500000 1.000000 0.250000
v -0.750000 1.500000 0.250000
v -1.500000 1.000000 0.250000
v -0.750000 1.500000 -0.250000
v -1.500000 1.000000 -0.250000
v 0.750000 1.500000 -0.250000
v 1.500000 1.000000 -0.250000
vn -0.0000 1.0000 -0.0000
vn -0.0000 -0.0000 1.0000
vn -0.0000 -1.0000 -0.0000
vn 1.0000 -0.0000 -0.0000
vn -0.0000 -0.0000 -1.0000
vn -1.0000 -0.0000 -0.0000
vt 1.000000 0.166667
vt 0.000000 0.166667
vt 1.000000 1.000000
vt 1.000000 0.166667
vt 1.000000 0.000000
vt 1.000000 0.000000
vt 0.000000 0.000000
vt 1.000000 1.000000
vt 1.000000 -0.000000
vt 0.000000 0.166667
vt 0.000000 1.000000
vt 0.000000 0.166667
vt 0.000000 0.000000
vt 1.000000 0.166667
vt 0.000000 0.000000
vt 0.000000 1.000000
vt 1.000000 0.000000
vt 0.000000 0.000000
vt 0.166667 0.541667
vt 1.000000 0.729167
vt 0.250000 0.833333
vt 0.166667 0.187500
vt 0.500000 0.729167
vt 0.750000 0.833333
vt 1.000000 0.541667
vt 0.250000 0.000000
vt 0.750000 0.000000
vt 1.000000 0.187500
vt 0.250000 0.166667
vt 0.250000 0.000000
vt 1.000000 0.375000
vt 0.750000 0.166667
vt 1.000000 0.354167
vt 0.750000 0.000000
vt 0.166667 0.354167
vt 0.500000 0.562500
vt 0.750000 0.833333
vt 0.166667 0.375000
vt 1.000000 0.562500
vt 0.250000 0.833333
vt 0.750000 0.000000
vt 0.750000 1.000000
vt 0.166667 0.000000
vt 1.000000 0.833333
vt 0.250000 0.000000
vt 0.250000 1.000000
vt 0.166667 0.000000
vt 0.000000 0.833333
vt 0.250000 0.166667
vt 0.250000 1.000000
vt 0.166667 0.166667
vt 0.000000 0.833333
vt 0.750000 0.166667
vt 0.750000 1.000000
vt 0.166667 0.166667
vt 1.000000 0.833333
s 0
usemtl InsideWall.005
f 6/13/5 22/52/5 16/40/5 13/30/5
f 16/40/5 21/50/5 23/54/5 15/37/5
f 16/40/5 22/52/5 5/11/5 21/50/5
f 15/37/5 23/54/5 1/3/5 24/56/5
f 24/56/5 2/5/5 14/34/5 15/37/5
usemtl OutsideWall.005
f 4/9/2 18/44/2 10/24/2 12/27/2
f 10/24/2 17/42/2 19/46/2 9/21/2
f 10/24/2 18/44/2 3/8/2 17/42/2
f 9/21/2 19/46/2 7/16/2 20/48/2
f 20/48/2 8/18/2 11/26/2 9/21/2
usemtl Edges.005
f 1/1/1 23/53/1 21/49/1 5/10/1 7/15/1 19/45/1 17/41/1 3/6/1
f 14/32/3 2/4/3 4/9/3 12/27/3
f 8/18/3 6/12/3 13/29/3 11/26/3
f 2/4/4 24/55/4 1/2/4 3/7/4 18/43/4 4/9/4
f 6/14/6 8/17/6 20/47/6 7/15/6 5/10/6 22/51/6
f 16/38/4 9/19/4 11/25/4 13/31/4
f 14/33/6 12/28/6 10/22/6 15/35/6
f 10/23/3 9/20/3 16/39/3 15/36/3
